<?xml version="1.0" encoding="UTF-8"?>
<svg xmlns="http://www.w3.org/2000/svg" xmlns:xlink="http://www.w3.org/1999/xlink" xmlns:svgjs="http://svgjs.com/svgjs" version="1.1" width="512" height="512" x="0" y="0" viewBox="0 0 512 512" style="enable-background:new 0 0 512 512" xml:space="preserve" class="">
  <g>
    <path d="M208 432h-48a16 16 0 0 1-16-16V96a16 16 0 0 1 16-16h48a16 16 0 0 1 16 16v320a16 16 0 0 1-16 16zM352 432h-48a16 16 0 0 1-16-16V96a16 16 0 0 1 16-16h48a16 16 0 0 1 16 16v320a16 16 0 0 1-16 16z" fill="#9e9e9e" data-original="#000000"/>
  </g>
</svg>
